<mxfile host="app.diagrams.net" modified="2022-05-03T13:15:02.133Z" agent="5.0 (Windows NT 10.0; Win64; x64) AppleWebKit/537.36 (KHTML, like Gecko) Chrome/100.0.4896.127 Safari/537.36" etag="L2OHHNEqR9EM0VuP64Gg" version="17.4.6" type="github">
  <diagram id="PhP-BJQ2wtuO1mvePhvb" name="第 1 页">
    <mxGraphModel dx="1038" dy="568" grid="1" gridSize="10" guides="1" tooltips="1" connect="1" arrows="1" fold="1" page="1" pageScale="1" pageWidth="827" pageHeight="1169" math="0" shadow="0">
      <root>
        <mxCell id="0" />
        <mxCell id="1" parent="0" />
        <mxCell id="Cr4EuKPD1U2jUR8o6u61-5" style="edgeStyle=orthogonalEdgeStyle;rounded=0;orthogonalLoop=1;jettySize=auto;html=1;" edge="1" parent="1" source="Cr4EuKPD1U2jUR8o6u61-1" target="Cr4EuKPD1U2jUR8o6u61-3">
          <mxGeometry relative="1" as="geometry" />
        </mxCell>
        <mxCell id="Cr4EuKPD1U2jUR8o6u61-1" value="长链接" style="rounded=0;whiteSpace=wrap;html=1;" vertex="1" parent="1">
          <mxGeometry x="40" y="190" width="120" height="60" as="geometry" />
        </mxCell>
        <mxCell id="Cr4EuKPD1U2jUR8o6u61-6" style="edgeStyle=orthogonalEdgeStyle;rounded=0;orthogonalLoop=1;jettySize=auto;html=1;" edge="1" parent="1" source="Cr4EuKPD1U2jUR8o6u61-3" target="Cr4EuKPD1U2jUR8o6u61-4">
          <mxGeometry relative="1" as="geometry" />
        </mxCell>
        <mxCell id="Cr4EuKPD1U2jUR8o6u61-3" value="MurmurHash（32）" style="rounded=0;whiteSpace=wrap;html=1;" vertex="1" parent="1">
          <mxGeometry x="210" y="190" width="120" height="60" as="geometry" />
        </mxCell>
        <mxCell id="Cr4EuKPD1U2jUR8o6u61-10" style="edgeStyle=orthogonalEdgeStyle;rounded=0;orthogonalLoop=1;jettySize=auto;html=1;entryX=-0.003;entryY=0.637;entryDx=0;entryDy=0;entryPerimeter=0;" edge="1" parent="1" source="Cr4EuKPD1U2jUR8o6u61-4" target="Cr4EuKPD1U2jUR8o6u61-8">
          <mxGeometry relative="1" as="geometry" />
        </mxCell>
        <mxCell id="Cr4EuKPD1U2jUR8o6u61-4" value="转62进制" style="rounded=0;whiteSpace=wrap;html=1;" vertex="1" parent="1">
          <mxGeometry x="390" y="190" width="120" height="60" as="geometry" />
        </mxCell>
        <mxCell id="Cr4EuKPD1U2jUR8o6u61-9" style="edgeStyle=orthogonalEdgeStyle;rounded=0;orthogonalLoop=1;jettySize=auto;html=1;entryX=0;entryY=0.25;entryDx=0;entryDy=0;" edge="1" parent="1" source="Cr4EuKPD1U2jUR8o6u61-7" target="Cr4EuKPD1U2jUR8o6u61-8">
          <mxGeometry relative="1" as="geometry" />
        </mxCell>
        <mxCell id="Cr4EuKPD1U2jUR8o6u61-7" value="机器码&lt;br&gt;（读配置文件）" style="rounded=0;whiteSpace=wrap;html=1;" vertex="1" parent="1">
          <mxGeometry x="390" y="90" width="120" height="60" as="geometry" />
        </mxCell>
        <mxCell id="Cr4EuKPD1U2jUR8o6u61-13" value="是否存在" style="edgeStyle=orthogonalEdgeStyle;rounded=0;orthogonalLoop=1;jettySize=auto;html=1;" edge="1" parent="1" source="Cr4EuKPD1U2jUR8o6u61-8" target="Cr4EuKPD1U2jUR8o6u61-12">
          <mxGeometry relative="1" as="geometry" />
        </mxCell>
        <mxCell id="Cr4EuKPD1U2jUR8o6u61-8" value="生成短链接" style="rounded=0;whiteSpace=wrap;html=1;" vertex="1" parent="1">
          <mxGeometry x="560" y="140" width="120" height="60" as="geometry" />
        </mxCell>
        <mxCell id="Cr4EuKPD1U2jUR8o6u61-11" value="短链接插入布隆过滤器" style="rounded=0;whiteSpace=wrap;html=1;" vertex="1" parent="1">
          <mxGeometry x="630" y="460" width="120" height="60" as="geometry" />
        </mxCell>
        <mxCell id="Cr4EuKPD1U2jUR8o6u61-14" value="不存在" style="edgeStyle=orthogonalEdgeStyle;rounded=0;orthogonalLoop=1;jettySize=auto;html=1;" edge="1" parent="1" source="Cr4EuKPD1U2jUR8o6u61-12" target="Cr4EuKPD1U2jUR8o6u61-11">
          <mxGeometry x="-0.7143" relative="1" as="geometry">
            <mxPoint as="offset" />
          </mxGeometry>
        </mxCell>
        <mxCell id="Cr4EuKPD1U2jUR8o6u61-16" style="edgeStyle=orthogonalEdgeStyle;rounded=0;orthogonalLoop=1;jettySize=auto;html=1;" edge="1" parent="1" source="Cr4EuKPD1U2jUR8o6u61-12" target="Cr4EuKPD1U2jUR8o6u61-15">
          <mxGeometry relative="1" as="geometry" />
        </mxCell>
        <mxCell id="Cr4EuKPD1U2jUR8o6u61-19" value="存在" style="edgeStyle=orthogonalEdgeStyle;rounded=0;orthogonalLoop=1;jettySize=auto;html=1;" edge="1" parent="1" source="Cr4EuKPD1U2jUR8o6u61-12" target="Cr4EuKPD1U2jUR8o6u61-18">
          <mxGeometry relative="1" as="geometry">
            <Array as="points">
              <mxPoint x="510" y="330" />
              <mxPoint x="510" y="330" />
            </Array>
          </mxGeometry>
        </mxCell>
        <mxCell id="Cr4EuKPD1U2jUR8o6u61-12" value="布隆过滤器" style="rhombus;whiteSpace=wrap;html=1;" vertex="1" parent="1">
          <mxGeometry x="550" y="290" width="140" height="80" as="geometry" />
        </mxCell>
        <mxCell id="Cr4EuKPD1U2jUR8o6u61-15" value="短链接Bean&lt;br&gt;插入Guava Cache" style="rounded=0;whiteSpace=wrap;html=1;" vertex="1" parent="1">
          <mxGeometry x="480" y="460" width="120" height="60" as="geometry" />
        </mxCell>
        <mxCell id="Cr4EuKPD1U2jUR8o6u61-21" style="edgeStyle=orthogonalEdgeStyle;rounded=0;orthogonalLoop=1;jettySize=auto;html=1;" edge="1" parent="1" source="Cr4EuKPD1U2jUR8o6u61-18" target="Cr4EuKPD1U2jUR8o6u61-20">
          <mxGeometry relative="1" as="geometry" />
        </mxCell>
        <mxCell id="Cr4EuKPD1U2jUR8o6u61-22" value="是否存在" style="edgeLabel;html=1;align=center;verticalAlign=middle;resizable=0;points=[];" vertex="1" connectable="0" parent="Cr4EuKPD1U2jUR8o6u61-21">
          <mxGeometry x="0.27" relative="1" as="geometry">
            <mxPoint x="10" as="offset" />
          </mxGeometry>
        </mxCell>
        <mxCell id="Cr4EuKPD1U2jUR8o6u61-18" value="去Guava Cache&lt;br&gt;中取对象" style="rounded=0;whiteSpace=wrap;html=1;" vertex="1" parent="1">
          <mxGeometry x="360" y="300" width="90" height="60" as="geometry" />
        </mxCell>
        <mxCell id="Cr4EuKPD1U2jUR8o6u61-24" style="edgeStyle=orthogonalEdgeStyle;rounded=0;orthogonalLoop=1;jettySize=auto;html=1;" edge="1" parent="1" source="Cr4EuKPD1U2jUR8o6u61-20" target="Cr4EuKPD1U2jUR8o6u61-23">
          <mxGeometry relative="1" as="geometry" />
        </mxCell>
        <mxCell id="Cr4EuKPD1U2jUR8o6u61-20" value="Guava&amp;nbsp;&lt;br&gt;Cache" style="rhombus;whiteSpace=wrap;html=1;" vertex="1" parent="1">
          <mxGeometry x="170" y="295" width="80" height="70" as="geometry" />
        </mxCell>
        <mxCell id="Cr4EuKPD1U2jUR8o6u61-23" value="取出对象" style="rounded=0;whiteSpace=wrap;html=1;" vertex="1" parent="1">
          <mxGeometry x="50" y="440" width="120" height="60" as="geometry" />
        </mxCell>
      </root>
    </mxGraphModel>
  </diagram>
</mxfile>
